<mxfile host="app.diagrams.net" modified="2023-04-21T02:25:45.553Z" agent="Mozilla/5.0 (Macintosh; Intel Mac OS X 10.15; rv:109.0) Gecko/20100101 Firefox/112.0" version="21.2.0" etag="IF7y3zDkMm6orV9R5_4G" type="github">
  <diagram name="Страница 1" id="11p8WvnLDjndFo5-HQZ-">
    <mxGraphModel>
      <root>
        <mxCell id="0" />
        <mxCell id="1" parent="0" />
      </root>
    </mxGraphModel>
  </diagram>
</mxfile>
